<?xml version="1.0" standalone="no"?>
<!DOCTYPE svg PUBLIC "-//W3C//DTD SVG 20010904//EN"
 "http://www.w3.org/TR/2001/REC-SVG-20010904/DTD/svg10.dtd">
<svg version="1.0" xmlns="http://www.w3.org/2000/svg"
 width="1423.000000pt" height="1423.000000pt" viewBox="0 0 1423.000000 1423.000000"
 preserveAspectRatio="xMidYMid meet">
<metadata>
Created by potrace 1.15, written by Peter Selinger 2001-2017
</metadata>
<g transform="translate(0.000000,1423.000000) scale(0.100000,-0.100000)"
fill="#000000" stroke="none">
<path d="M0 7115 l0 -7115 7115 0 7115 0 0 7115 0 7115 -7115 0 -7115 0 0
-7115z m5521 -4360 c372 -62 652 -310 747 -664 23 -85 26 -116 26 -271 1 -149
-3 -188 -22 -263 -80 -319 -266 -554 -537 -683 -288 -137 -650 -134 -930 6
-178 89 -302 212 -394 390 -94 183 -126 332 -118 547 6 161 31 262 102 410
202 418 616 612 1126 528z m1313 -15 c297 -20 1137 -10 1277 16 48 8 49 5 41
-181 -6 -126 -10 -150 -23 -153 -12 -2 -17 8 -22 47 -3 28 -13 61 -22 75 -39
59 -177 86 -448 86 l-168 0 4 -822 c2 -557 7 -836 15 -862 18 -67 49 -88 144
-100 162 -21 92 -31 -239 -34 -271 -2 -323 0 -323 12 0 9 18 16 54 20 62 8 92
33 109 93 7 26 12 303 14 867 l4 828 -253 -5 c-150 -3 -268 -9 -290 -16 -54
-17 -93 -54 -124 -116 -34 -71 -59 -75 -49 -7 10 69 53 250 65 272 10 18 13
18 52 4 23 -8 105 -19 182 -24z m2314 5 c6 -14 109 -278 228 -587 432 -1124
459 -1186 539 -1256 37 -33 117 -62 173 -62 22 0 32 -4 30 -12 -6 -17 -506
-24 -522 -8 -7 7 -3 17 12 30 12 12 22 25 22 31 0 5 -52 148 -116 317 -64 169
-121 319 -126 335 l-10 27 -293 0 -294 0 -19 -52 c-50 -135 -171 -518 -176
-559 -6 -40 -4 -51 17 -74 18 -22 35 -29 75 -33 35 -3 52 -9 52 -18 0 -12 -50
-14 -285 -14 -247 0 -285 2 -285 15 0 10 10 15 30 15 107 0 187 49 233 144 15
31 118 303 228 604 110 301 250 682 310 847 61 165 117 310 125 322 17 26 37
21 52 -12z m2592 4 c101 -27 164 -63 235 -134 180 -180 191 -462 30 -774 -124
-240 -310 -451 -679 -771 l-109 -95 239 -3 c272 -3 447 9 518 35 89 33 150
103 180 207 7 24 19 42 29 44 27 5 22 -65 -17 -218 -43 -170 -49 -185 -83
-207 -25 -17 -66 -18 -552 -21 -289 -2 -535 -1 -547 2 -24 6 -36 28 -28 50 3
8 65 68 137 132 480 430 680 682 763 961 32 108 43 288 25 385 -28 140 -110
250 -229 306 -52 25 -67 27 -177 27 -104 0 -126 -4 -165 -23 -112 -55 -173
-145 -186 -274 -7 -68 -17 -89 -35 -71 -11 11 -32 326 -24 353 11 36 187 92
341 110 107 12 243 3 334 -21z m-8537 -38 c405 -91 652 -324 733 -696 25 -117
23 -331 -4 -452 -93 -410 -368 -678 -776 -759 -98 -19 -329 -25 -486 -13 -63
5 -230 13 -370 17 -257 7 -303 16 -196 37 28 6 57 14 65 19 53 34 63 201 59
1041 -3 626 -5 694 -20 728 -20 44 -58 63 -142 73 -39 5 -56 11 -56 21 0 12
77 14 548 10 518 -3 552 -5 645 -26z"/>
<path d="M5145 2679 c-306 -45 -519 -255 -593 -587 -26 -116 -23 -396 5 -518
49 -209 118 -338 253 -475 82 -82 108 -102 190 -142 135 -67 200 -81 350 -81
107 1 137 5 205 27 185 61 314 174 400 352 78 162 111 375 93 605 -42 546
-420 889 -903 819z"/>
<path d="M9062 2374 c-21 -42 -232 -705 -227 -714 8 -12 492 -14 499 -2 6 9
-240 712 -254 726 -4 4 -13 0 -18 -10z"/>
<path d="M2537 2651 c-99 -14 -92 31 -95 -564 -2 -287 1 -646 6 -797 10 -310
14 -325 82 -360 85 -43 154 -54 350 -54 216 0 284 14 435 88 274 135 407 381
408 751 1 270 -77 475 -247 654 -137 143 -304 229 -516 265 -106 18 -345 27
-423 17z"/>
</g>
</svg>
